<?xml version="1.0" encoding="UTF-8"?>
<svg width="20px" height="20px" viewBox="0 0 20 20" version="1.1" xmlns="http://www.w3.org/2000/svg" xmlns:xlink="http://www.w3.org/1999/xlink">
    <title>C29E07E7-AD40-41A2-BB6F-AC2D161EF8D6</title>
    <defs>
        <linearGradient x1="50%" y1="100%" x2="50%" y2="0%" id="linearGradient-1">
            <stop stop-color="#32BEDD" offset="0%"></stop>
            <stop stop-color="#32D4F5" offset="77.5%"></stop>
        </linearGradient>
    </defs>
    <g id="Page-1" stroke="none" stroke-width="1" fill="none" fill-rule="evenodd">
        <g id="adding-new-API-Calls" transform="translate(-1178.000000, -474.000000)" fill-rule="nonzero">
            <g id="Dropdown/Select/Default-Copy-23" transform="translate(1168.000000, 464.000000)">
                <g id="Icon/Connectro-logo" transform="translate(10.000000, 10.000000)">
                    <g id="10838-icon-service-Storage-Azure-Files" transform="translate(0.000000, 2.000000)">
                        <path d="M0,3.66615192 L20,3.66615192 L20,15.3352452 C20,15.7023792 19.7008525,16 19.3318354,16 L0.668164617,16 C0.299147489,16 0,15.7023792 0,15.3352452 L0,3.66615192 Z" id="Path" fill="url(#linearGradient-1)"></path>
                        <path d="M0.671712394,0 L19.3282876,0 C19.6973047,0 19.9964522,0.297620844 19.9964522,0.664754761 L19.9964522,3.66497537 L0.00354672868,3.66497537 L0.00354672868,0.665931318 C0.00323377078,0.48942363 0.0734908379,0.320038237 0.198830061,0.195117953 C0.324169283,0.0701976692 0.494299032,0 0.671712394,0 Z" id="Path" fill="#0078D4"></path>
                        <path d="M15.794702,6.01103022 L10.3547777,6.01103022 C10.2842318,6.01103022 10.2165979,6.03902317 10.1667455,6.08868299 L9.29280984,6.95815869 C9.24295742,7.00781851 9.17532356,7.03574967 9.10477767,7.03581146 L4.97634816,7.03581146 C4.83004756,7.03581146 4.71144749,7.15380627 4.71144749,7.29936025 L4.71144749,13.9469079 C4.71144749,14.0166976 4.73939357,14.083612 4.78910637,14.1328503 C4.83881917,14.1820886 4.9062011,14.2095931 4.97634816,14.2092827 L15.794702,14.2092827 C15.940542,14.2092827 16.0589516,14.0920022 16.0596026,13.9469079 L16.0596026,6.27457901 C16.0596026,6.12902504 15.9410026,6.01103022 15.794702,6.01103022 L15.794702,6.01103022 Z" id="Path" fill="#FFFFFF" opacity="0.9"></path>
                    </g>
                </g>
            </g>
        </g>
    </g>
</svg>