<?xml version="1.0" encoding="UTF-8"?>
<svg width="20px" height="20px" viewBox="0 0 20 20" version="1.1" xmlns="http://www.w3.org/2000/svg" xmlns:xlink="http://www.w3.org/1999/xlink">
    <title>1E8B2747-C4FF-4588-829D-592B7F9C3A9A</title>
    <g id="Page-1" stroke="none" stroke-width="1" fill="none" fill-rule="evenodd">
        <g id="adding-new-API-Calls" transform="translate(-1008.000000, -514.000000)" fill-rule="nonzero">
            <g id="Dropdown/Select/Default-Copy-24" transform="translate(998.000000, 504.000000)">
                <g id="Icon/Connectro-logo" transform="translate(10.000000, 10.000000)">
                    <g id="icons8-azure-storage-blob" transform="translate(0.000000, 1.000000)">
                        <path d="M14.4824597,0 L5.51754034,0 C5.14745274,0 4.80583341,0.201705882 4.62104841,0.529411765 L0.13858875,8.47058824 C-0.04619625,8.79829412 -0.04619625,9.20170588 0.13858875,9.52941176 L4.62104841,17.4705882 C4.80583341,17.7982941 5.14797034,18 5.51754034,18 L14.4824597,18 C14.8525473,18 15.1941666,17.7982941 15.3789516,17.4705882 L19.8614113,9.52941176 C20.0461962,9.20170588 20.0461962,8.79829412 19.8614113,8.47058824 L15.3789516,0.529411765 C15.1941666,0.201705882 14.8525473,0 14.4824597,0 Z" id="Path" fill="#2979FF"></path>
                        <path d="M14.1408403,14.8235294 L5.85915967,14.8235294 C5.57344169,14.8235294 5.34155463,14.5863529 5.34155463,14.2941176 L5.34155463,3.70588235 C5.34155463,3.41364706 5.57344169,3.17647059 5.85915967,3.17647059 L12.5880252,3.17647059 L14.6584454,5.29411765 L14.6584454,14.2941176 C14.6584454,14.5863529 14.4265583,14.8235294 14.1408403,14.8235294 Z" id="Path" fill="#FFFFFF"></path>
                        <path d="M12.5880252,3.17647059 L12.5880252,4.76470588 C12.5880252,5.05694118 12.8199123,5.29411765 13.1056302,5.29411765 L14.6584454,5.29411765 L12.5880252,3.17647059 Z" id="Path" fill="#B1CFFF"></path>
                        <path d="M9.10195525,8.91052941 L8.41095252,8.91052941 L8.41095252,6.66 L7.73185471,6.86276471 L7.73185471,6.32752941 L9.03828983,5.86535294 L9.10143765,5.86535294 L9.10143765,8.91052941 L9.10195525,8.91052941 Z M12.4337789,7.66588235 C12.4337789,7.88611765 12.4084163,8.07670588 12.3582086,8.23817647 C12.3080009,8.39858824 12.237089,8.53252941 12.1454729,8.63841176 C12.0543744,8.74429412 11.9451597,8.82317647 11.8183465,8.87452941 C11.6915333,8.92588235 11.5517799,8.95182353 11.3990864,8.95182353 C11.2448401,8.95182353 11.1040516,8.92588235 10.9767207,8.87452941 C10.8493899,8.82317647 10.7401752,8.74429412 10.6490767,8.63841176 C10.5579782,8.53252941 10.4860311,8.39858824 10.4353058,8.23817647 C10.3840629,8.07670588 10.3592179,7.88611765 10.3592179,7.66588235 L10.3592179,7.10947059 C10.3592179,6.89082353 10.3845805,6.70023529 10.4347882,6.53876471 C10.4849959,6.37729412 10.5559078,6.24335294 10.6475239,6.13747059 C10.7386224,6.03158824 10.8478371,5.95270588 10.9746503,5.90135294 C11.1004283,5.84947059 11.2406993,5.82352941 11.3949456,5.82352941 C11.5476391,5.82352941 11.6873924,5.84947059 11.8147233,5.90082353 C11.9420541,5.95217647 12.0517864,6.03105882 12.1434025,6.13694118 C12.234501,6.24282353 12.3054129,6.37676471 12.3566558,6.53823529 C12.4078987,6.69970588 12.4337789,6.89029412 12.4337789,7.10894118 L12.4337789,7.66588235 Z M11.744329,7.02 C11.744329,6.89876471 11.7360473,6.79711765 11.7200016,6.71347059 C11.7034382,6.63141176 11.6806636,6.56364706 11.6506425,6.51176471 C11.6206214,6.46041176 11.5838714,6.42335294 11.5409102,6.40111765 C11.497949,6.37888235 11.4498117,6.36776471 11.3949456,6.36776471 C11.3405971,6.36776471 11.2914246,6.37888235 11.2484634,6.40111765 C11.2055021,6.42335294 11.1692698,6.46041176 11.1402839,6.51176471 C11.1107804,6.56311765 11.0885234,6.63088235 11.0729953,6.71347059 C11.0574671,6.79711765 11.049703,6.89876471 11.049703,7.02 L11.049703,7.75217647 C11.049703,7.87605882 11.0569495,7.98035294 11.0729953,8.064 C11.0885234,8.14764706 11.1118156,8.21541176 11.1418367,8.26570588 C11.1718578,8.31705882 11.2086078,8.35358824 11.2520866,8.37582353 C11.2955654,8.39805882 11.3447379,8.40917647 11.3990864,8.40917647 C11.4523997,8.40917647 11.5000194,8.39805882 11.5429806,8.37582353 C11.5859418,8.35358824 11.6226918,8.31705882 11.6527129,8.26570588 C11.682734,8.21541176 11.704991,8.14764706 11.7210368,8.064 C11.7365649,7.98035294 11.7448466,7.87658824 11.7448466,7.75217647 L11.7448466,7.02 L11.744329,7.02 Z M9.64181731,11.9493529 C9.64181731,12.1695882 9.61645466,12.3601765 9.56624698,12.5216471 C9.51603929,12.6820588 9.4451274,12.816 9.3535113,12.9218824 C9.26241282,13.0277647 9.15319815,13.1066471 9.02638492,13.158 C8.89957168,13.2093529 8.75981832,13.2352941 8.60712483,13.2352941 C8.45287853,13.2352941 8.31208996,13.2093529 8.18475912,13.158 C8.05742828,13.1066471 7.94821362,13.0277647 7.85711513,12.9218824 C7.76601664,12.816 7.69406954,12.6820588 7.64334425,12.5216471 C7.59210135,12.3601765 7.56725631,12.1695882 7.56725631,11.9493529 L7.56725631,11.3929412 C7.56725631,11.1742941 7.59261895,10.9837059 7.64282664,10.8222353 C7.69303433,10.6607647 7.76394622,10.5268235 7.85556231,10.4209412 C7.9466608,10.3150588 8.05587546,10.2361765 8.1826887,10.1848235 C8.30950193,10.1334706 8.4497729,10.1075294 8.6040192,10.1075294 C8.75671269,10.1075294 8.89646605,10.1334706 9.02379689,10.1848235 C9.15112773,10.2361765 9.26086,10.3150588 9.35247609,10.4209412 C9.44357458,10.5268235 9.51448647,10.6607647 9.56572937,10.8222353 C9.61697227,10.9837059 9.64285252,11.1742941 9.64285252,11.3929412 L9.64285252,11.9493529 L9.64181731,11.9493529 Z M8.952885,11.3029412 C8.952885,11.1817059 8.94460332,11.0800588 8.92855756,10.9964118 C8.9119942,10.9143529 8.88921958,10.8465882 8.85919849,10.7947059 C8.8291774,10.7433529 8.79242744,10.7062941 8.74946622,10.6840588 C8.706505,10.6618235 8.65836773,10.6507059 8.6035016,10.6507059 C8.54863546,10.6507059 8.49998059,10.6618235 8.45701937,10.6840588 C8.41405815,10.7062941 8.3778258,10.7433529 8.34883992,10.7947059 C8.31933643,10.8460588 8.29707941,10.9138235 8.28155126,10.9964118 C8.26602311,11.0800588 8.25825904,11.1817059 8.25825904,11.3029412 L8.25825904,12.0351176 C8.25825904,12.159 8.26550551,12.2632941 8.28155126,12.3469412 C8.29707941,12.4305882 8.32037164,12.4983529 8.35039273,12.5486471 C8.38041383,12.6 8.41716378,12.6365294 8.46064261,12.6587647 C8.50412143,12.681 8.55329391,12.6921176 8.60764244,12.6921176 C8.66095576,12.6921176 8.70857542,12.681 8.75153664,12.6587647 C8.79449786,12.6365294 8.83124782,12.6 8.86126891,12.5486471 C8.89129,12.4983529 8.91354702,12.4305882 8.92959277,12.3469412 C8.94512093,12.2632941 8.95340261,12.1595294 8.95340261,12.0351176 L8.95340261,11.3029412 L8.952885,11.3029412 Z M11.8939168,13.1934706 L11.2029141,13.1934706 L11.2029141,10.9429412 L10.5238163,11.1457059 L10.5238163,10.6104706 L11.8302514,10.1482941 L11.8933992,10.1482941 L11.8933992,13.1934706 L11.8939168,13.1934706 Z" id="Shape" fill="#03A9F4"></path>
                    </g>
                </g>
            </g>
        </g>
    </g>
</svg>